P3
#.
37 34
255
255 255 255 251   2   7 251   2   7 251   2   7 251   2   7 251   2   7 251   2   7 251   2   7 255 255 255 255 255 255 255 255 255 255 255 255 255 255 255 255 255 255 255 255 255 255 255 255 255 255 255 255 255 255 255 255 255 255 255 255 255 255 255 255 255 255 251   2   7 255 255 255 255 255 255 255 255 255 255 255 255 255 255 255 255 255 255 255 255 255 255 255 255 255 255 255 255 255 255 255 255 255 255 255 255 255 255 255 255 255 255
255 255 255 251   2   7 255 255 255 255 255 255 255 255 255 255 255 255 255 255 255 255 255 255 251   2   7 255 255 255 255 255 255 255 255 255 255 255 255 255 255 255 255 255 255 255 255 255 255 255 255 255 255 255 255 255 255 255 255 255 255 255 255 255 255 255 251   2   7 255 255 255 255 255 255 255 255 255 255 255 255 255 255 255 255 255 255 255 255 255 255 255 255 255 255 255 255 255 255 255 255 255 255 255 255 255 255 255 255 255 255
255 255 255 251   2   7 255 255 255 255 255 255 255 255 255 255 255 255 255 255 255 255 255 255 251   2   7 255 255 255 255 255 255 255 255 255 251   2   7 251   2   7 255 255 255 255 255 255 255 255 255 255 255 255 255 255 255 251   2   7 251   2   7 255 255 255 251   2   7 255 255 255 255 255 255 255 255 255 255 255 255 255 255 255 255 255 255 255 255 255 255 255 255 255 255 255 255 255 255 255 255 255 255 255 255 255 255 255 255 255 255
255 255 255 251   2   7 255 255 255 255 255 255 255 255 255 255 255 255 255 255 255 255 255 255 251   2   7 255 255 255 255 255 255 251   2   7 255 255 255 255 255 255 251   2   7 255 255 255 255 255 255 255 255 255 251   2   7 255 255 255 255 255 255 251   2   7 251   2   7 255 255 255 255 255 255 255 255 255 255 255 255 255 255 255 255 255 255 255 255 255 255 255 255 255 255 255 255 255 255 255 255 255 255 255 255 255 255 255 255 255 255
255 255 255 251   2   7 255 255 255 255 255 255 255 255 255 255 255 255 255 255 255 255 255 255 251   2   7 255 255 255 251   2   7 255 255 255 255 255 255 255 255 255 255 255 255 251   2   7 255 255 255 251   2   7 255 255 255 255 255 255 255 255 255 255 255 255 251   2   7 255 255 255 255 255 255 255 255 255 255 255 255 255 255 255 255 255 255 255 255 255 255 255 255 255 255 255 255 255 255 255 255 255 255 255 255 255 255 255 255 255 255
255 255 255 251   2   7 251   2   7 251   2   7 251   2   7 251   2   7 251   2   7 251   2   7 255 255 255 255 255 255 251   2   7 251   2   7 251   2   7 251   2   7 251   2   7 251   2   7 255 255 255 251   2   7 255 255 255 255 255 255 255 255 255 255 255 255 251   2   7 255 255 255 255 255 255 255 255 255 255 255 255 255 255 255 255 255 255 255 255 255 255 255 255 255 255 255 255 255 255 255 255 255 255 255 255 255 255 255 255 255 255
255 255 255 251   2   7 255 255 255 255 255 255 255 255 255 255 255 255 255 255 255 255 255 255 251   2   7 255 255 255 251   2   7 255 255 255 255 255 255 255 255 255 255 255 255 255 255 255 255 255 255 251   2   7 255 255 255 255 255 255 255 255 255 255 255 255 251   2   7 255 255 255 255 255 255 255 255 255 255 255 255 255 255 255 255 255 255 255 255 255 255 255 255 255 255 255 255 255 255 255 255 255 255 255 255 255 255 255 255 255 255
255 255 255 251   2   7 255 255 255 255 255 255 255 255 255 255 255 255 255 255 255 255 255 255 251   2   7 255 255 255 251   2   7 255 255 255 255 255 255 255 255 255 255 255 255 255 255 255 255 255 255 251   2   7 255 255 255 255 255 255 255 255 255 255 255 255 251   2   7 255 255 255 255 255 255 255 255 255 255 255 255 255 255 255 255 255 255 255 255 255 255 255 255 255 255 255 255 255 255 255 255 255 255 255 255 255 255 255 255 255 255
255 255 255 251   2   7 255 255 255 255 255 255 255 255 255 255 255 255 255 255 255 255 255 255 251   2   7 255 255 255 255 255 255 251   2   7 255 255 255 255 255 255 255 255 255 251   2   7 255 255 255 255 255 255 251   2   7 255 255 255 255 255 255 251   2   7 251   2   7 255 255 255 255 255 255 255 255 255 255 255 255 255 255 255 255 255 255 255 255 255 255 255 255 255 255 255 255 255 255 255 255 255 255 255 255 255 255 255 255 255 255
255 255 255 251   2   7 255 255 255 255 255 255 255 255 255 255 255 255 255 255 255 255 255 255 251   2   7 255 255 255 251   2   7 255 255 255 251   2   7 251   2   7 251   2   7 255 255 255 255 255 255 255 255 255 255 255 255 251   2   7 251   2   7 255 255 255 251   2   7 255 255 255 255 255 255 255 255 255 255 255 255 255 255 255 255 255 255 255 255 255 255 255 255 255 255 255 255 255 255 255 255 255 255 255 255 255 255 255 255 255 255
255 255 255 255 255 255 255 255 255 255 255 255 255 255 255 255 255 255 255 255 255 255 255 255 255 255 255 255 255 255 255 255 255 255 255 255 255 255 255 255 255 255 255 255 255 255 255 255 255 255 255 255 255 255 255 255 255 255 255 255 255 255 255 255 255 255 255 255 255 255 255 255 255 255 255 255 255 255 255 255 255 255 255 255 255 255 255 255 255 255 255 255 255 255 255 255 255 255 255 255 255 255 255 255 255 255 255 255 255 255 255
255 255 255 255 255 255 255 255 255  17 128   2  17 128   2  17 128   2  17 128   2  17 128   2 255 255 255 255 255 255 255 255 255 255 255 255 255 255 255 255 255 255 255 255 255 255 255 255 255 255 255 255 255 255 255 255 255 255 255 255 255 255 255 255 255 255 255 255 255 255 255 255 255 255 255 255 255 255 255 255 255 255 255 255 255 255 255 255 255 255 255 255 255 255 255 255 255 255 255 255 255 255 255 255 255 255 255 255 255 255 255
255 255 255 255 255 255  17 128   2 255 255 255 255 255 255 255 255 255 255 255 255 255 255 255  17 128   2 255 255 255 255 255 255 255 255 255 255 255 255 255 255 255 255 255 255 255 255 255 255 255 255 255 255 255 255 255 255 255 255 255 255 255 255 255 255 255 255 255 255 255 255 255 255 255 255 255 255 255 255 255 255 255 255 255 255 255 255 255 255 255 255 255 255 255 255 255 255 255 255 255 255 255 255 255 255 255 255 255 255 255 255
255 255 255  17 128   2 255 255 255 255 255 255 255 255 255 255 255 255 255 255 255 255 255 255 255 255 255  17 128   2 255 255 255  17 128   2 255 255 255  17 128   2 255 255 255 255 255 255 255 255 255  17 128   2  17 128   2 255 255 255 255 255 255 255 255 255 255 255 255 255 255 255  17 128   2  17 128   2 255 255 255 255 255 255 255 255 255  17 128   2 255 255 255  17 128   2  17 128   2  17 128   2 255 255 255 255 255 255 255 255 255
255 255 255  17 128   2 255 255 255 255 255 255 255 255 255 255 255 255 255 255 255 255 255 255 255 255 255 255 255 255 255 255 255  17 128   2  17 128   2 255 255 255 255 255 255 255 255 255  17 128   2 255 255 255 255 255 255  17 128   2 255 255 255 255 255 255 255 255 255  17 128   2 255 255 255 255 255 255  17 128   2 255 255 255 255 255 255  17 128   2  17 128   2 255 255 255 255 255 255 255 255 255  17 128   2 255 255 255 255 255 255
255 255 255  17 128   2 255 255 255 255 255 255 255 255 255 255 255 255 255 255 255 255 255 255 255 255 255 255 255 255 255 255 255  17 128   2 255 255 255 255 255 255 255 255 255  17 128   2 255 255 255 255 255 255 255 255 255 255 255 255  17 128   2 255 255 255  17 128   2 255 255 255 255 255 255 255 255 255 255 255 255  17 128   2 255 255 255  17 128   2 255 255 255 255 255 255 255 255 255 255 255 255  17 128   2 255 255 255 255 255 255
255 255 255  17 128   2 255 255 255 255 255 255 255 255 255 255 255 255  17 128   2  17 128   2  17 128   2  17 128   2 255 255 255  17 128   2 255 255 255 255 255 255 255 255 255  17 128   2  17 128   2  17 128   2  17 128   2  17 128   2  17 128   2 255 255 255  17 128   2  17 128   2  17 128   2  17 128   2  17 128   2  17 128   2 255 255 255  17 128   2 255 255 255 255 255 255 255 255 255 255 255 255  17 128   2 255 255 255 255 255 255
255 255 255  17 128   2 255 255 255 255 255 255 255 255 255 255 255 255 255 255 255 255 255 255 255 255 255  17 128   2 255 255 255  17 128   2 255 255 255 255 255 255 255 255 255  17 128   2 255 255 255 255 255 255 255 255 255 255 255 255 255 255 255 255 255 255  17 128   2 255 255 255 255 255 255 255 255 255 255 255 255 255 255 255 255 255 255  17 128   2 255 255 255 255 255 255 255 255 255 255 255 255  17 128   2 255 255 255 255 255 255
255 255 255  17 128   2 255 255 255 255 255 255 255 255 255 255 255 255 255 255 255 255 255 255 255 255 255  17 128   2 255 255 255  17 128   2 255 255 255 255 255 255 255 255 255  17 128   2 255 255 255 255 255 255 255 255 255 255 255 255 255 255 255 255 255 255  17 128   2 255 255 255 255 255 255 255 255 255 255 255 255 255 255 255 255 255 255  17 128   2 255 255 255 255 255 255 255 255 255 255 255 255  17 128   2 255 255 255 255 255 255
255 255 255 255 255 255  17 128   2 255 255 255 255 255 255 255 255 255 255 255 255 255 255 255  17 128   2  17 128   2 255 255 255  17 128   2 255 255 255 255 255 255 255 255 255 255 255 255  17 128   2 255 255 255 255 255 255 255 255 255  17 128   2 255 255 255 255 255 255  17 128   2 255 255 255 255 255 255 255 255 255  17 128   2 255 255 255  17 128   2 255 255 255 255 255 255 255 255 255 255 255 255  17 128   2 255 255 255 255 255 255
255 255 255 255 255 255 255 255 255  17 128   2  17 128   2  17 128   2  17 128   2  17 128   2 255 255 255  17 128   2 255 255 255  17 128   2 255 255 255 255 255 255 255 255 255 255 255 255 255 255 255  17 128   2  17 128   2  17 128   2 255 255 255 255 255 255 255 255 255 255 255 255  17 128   2  17 128   2  17 128   2 255 255 255 255 255 255  17 128   2 255 255 255 255 255 255 255 255 255 255 255 255  17 128   2 255 255 255 255 255 255
255 255 255 255 255 255 255 255 255 255 255 255 255 255 255 255 255 255 255 255 255 255 255 255 255 255 255 255 255 255 255 255 255 255 255 255 255 255 255 255 255 255 255 255 255 255 255 255 255 255 255 255 255 255 255 255 255 255 255 255 255 255 255 255 255 255 255 255 255 255 255 255 255 255 255 255 255 255 255 255 255 255 255 255 255 255 255 255 255 255 255 255 255 255 255 255 255 255 255 255 255 255 255 255 255 255 255 255 255 255 255
255 255 255   0   0 255   0   0 255   0   0 255   0   0 255   0   0 255   0   0 255 255 255 255 255 255 255   0   0 255 255 255 255 255 255 255 255 255 255 255 255 255 255 255 255 255 255 255 255 255 255 255 255 255 255 255 255 255 255 255 255 255 255 255 255 255 255 255 255 255 255 255 255 255 255 255 255 255 255 255 255 255 255 255 255 255 255 255 255 255 255 255 255 255 255 255 255 255 255 255 255 255 255 255 255 255 255 255 255 255 255
255 255 255   0   0 255 255 255 255 255 255 255 255 255 255 255 255 255 255 255 255   0   0 255 255 255 255   0   0 255 255 255 255 255 255 255 255 255 255 255 255 255 255 255 255 255 255 255 255 255 255 255 255 255 255 255 255 255 255 255 255 255 255 255 255 255 255 255 255 255 255 255 255 255 255 255 255 255 255 255 255 255 255 255 255 255 255 255 255 255 255 255 255 255 255 255 255 255 255 255 255 255 255 255 255 255 255 255 255 255 255
255 255 255   0   0 255 255 255 255 255 255 255 255 255 255 255 255 255 255 255 255   0   0 255 255 255 255   0   0 255 255 255 255 255 255 255   0   0 255 255 255 255 255 255 255 255 255 255 255 255 255   0   0 255 255 255 255 255 255 255 255 255 255   0   0 255   0   0 255 255 255 255 255 255 255 255 255 255 255 255 255 255 255 255 255 255 255 255 255 255 255 255 255 255 255 255 255 255 255 255 255 255 255 255 255 255 255 255 255 255 255
255 255 255   0   0 255 255 255 255 255 255 255 255 255 255 255 255 255 255 255 255   0   0 255 255 255 255   0   0 255 255 255 255 255 255 255   0   0 255 255 255 255 255 255 255 255 255 255 255 255 255   0   0 255 255 255 255 255 255 255   0   0 255 255 255 255 255 255 255   0   0 255 255 255 255 255 255 255 255 255 255 255 255 255 255 255 255 255 255 255 255 255 255 255 255 255 255 255 255 255 255 255 255 255 255 255 255 255 255 255 255
255 255 255   0   0 255   0   0 255   0   0 255   0   0 255   0   0 255   0   0 255 255 255 255 255 255 255   0   0 255 255 255 255 255 255 255   0   0 255 255 255 255 255 255 255 255 255 255 255 255 255   0   0 255 255 255 255   0   0 255 255 255 255 255 255 255 255 255 255 255 255 255   0   0 255 255 255 255 255 255 255 255 255 255 255 255 255 255 255 255 255 255 255 255 255 255 255 255 255 255 255 255 255 255 255 255 255 255 255 255 255
255 255 255   0   0 255 255 255 255 255 255 255 255 255 255 255 255 255 255 255 255   0   0 255 255 255 255   0   0 255 255 255 255 255 255 255   0   0 255 255 255 255 255 255 255 255 255 255 255 255 255   0   0 255 255 255 255   0   0 255   0   0 255   0   0 255   0   0 255   0   0 255   0   0 255 255 255 255 255 255 255 255 255 255 255 255 255 255 255 255 255 255 255 255 255 255 255 255 255 255 255 255 255 255 255 255 255 255 255 255 255
255 255 255   0   0 255 255 255 255 255 255 255 255 255 255 255 255 255 255 255 255   0   0 255 255 255 255   0   0 255 255 255 255 255 255 255   0   0 255 255 255 255 255 255 255 255 255 255 255 255 255   0   0 255 255 255 255   0   0 255 255 255 255 255 255 255 255 255 255 255 255 255 255 255 255 255 255 255 255 255 255 255 255 255 255 255 255 255 255 255 255 255 255 255 255 255 255 255 255 255 255 255 255 255 255 255 255 255 255 255 255
255 255 255   0   0 255 255 255 255 255 255 255 255 255 255 255 255 255 255 255 255   0   0 255 255 255 255   0   0 255 255 255 255 255 255 255   0   0 255 255 255 255 255 255 255 255 255 255 255 255 255   0   0 255 255 255 255   0   0 255 255 255 255 255 255 255 255 255 255 255 255 255 255 255 255 255 255 255 255 255 255 255 255 255 255 255 255 255 255 255 255 255 255 255 255 255 255 255 255 255 255 255 255 255 255 255 255 255 255 255 255
255 255 255   0   0 255 255 255 255 255 255 255 255 255 255 255 255 255 255 255 255   0   0 255 255 255 255   0   0 255 255 255 255 255 255 255   0   0 255 255 255 255 255 255 255 255 255 255   0   0 255   0   0 255 255 255 255 255 255 255   0   0 255 255 255 255 255 255 255 255 255 255   0   0 255 255 255 255 255 255 255 255 255 255 255 255 255 255 255 255 255 255 255 255 255 255 255 255 255 255 255 255 255 255 255 255 255 255 255 255 255
255 255 255   0   0 255   0   0 255   0   0 255   0   0 255   0   0 255   0   0 255 255 255 255 255 255 255   0   0 255 255 255 255 255 255 255 255 255 255   0   0 255   0   0 255   0   0 255 255 255 255   0   0 255 255 255 255 255 255 255 255 255 255   0   0 255   0   0 255   0   0 255 255 255 255 255 255 255 255 255 255 255 255 255 255 255 255 255 255 255 255 255 255 255 255 255 255 255 255 255 255 255 255 255 255 255 255 255 255 255 255
255 255 255 255 255 255 255 255 255 255 255 255 255 255 255 255 255 255 255 255 255 255 255 255 255 255 255 255 255 255 255 255 255 255 255 255 255 255 255 255 255 255 255 255 255 255 255 255 255 255 255 255 255 255 255 255 255 255 255 255 255 255 255 255 255 255 255 255 255 255 255 255 255 255 255 255 255 255 255 255 255 255 255 255 255 255 255 255 255 255 255 255 255 255 255 255 255 255 255 255 255 255 255 255 255 255 255 255 255 255 255
255 255 255 255 255 255 255 255 255 255 255 255 255 255 255 255 255 255 255 255 255 255 255 255 255 255 255 255 255 255 255 255 255 255 255 255 255 255 255 255 255 255 255 255 255 255 255 255 255 255 255 255 255 255 255 255 255 255 255 255 255 255 255 255 255 255 255 255 255 255 255 255 255 255 255 255 255 255 255 255 255 255 255 255 255 255 255 255 255 255 255 255 255 255 255 255 255 255 255 255 255 255 255 255 255 255 255 255 255 255 255
